{
	"patcher" : 	{
		"fileversion" : 1,
		"appversion" : 		{
			"major" : 8,
			"minor" : 2,
			"revision" : 1,
			"architecture" : "x64",
			"modernui" : 1
		}
,
		"classnamespace" : "box",
		"rect" : [ 34.0, 87.0, 1566.0, 954.0 ],
		"bglocked" : 0,
		"openinpresentation" : 0,
		"default_fontsize" : 12.0,
		"default_fontface" : 0,
		"default_fontname" : "Arial",
		"gridonopen" : 1,
		"gridsize" : [ 15.0, 15.0 ],
		"gridsnaponopen" : 1,
		"objectsnaponopen" : 1,
		"statusbarvisible" : 2,
		"toolbarvisible" : 1,
		"lefttoolbarpinned" : 0,
		"toptoolbarpinned" : 0,
		"righttoolbarpinned" : 0,
		"bottomtoolbarpinned" : 0,
		"toolbars_unpinned_last_save" : 0,
		"tallnewobj" : 0,
		"boxanimatetime" : 200,
		"enablehscroll" : 1,
		"enablevscroll" : 1,
		"devicewidth" : 0.0,
		"description" : "",
		"digest" : "",
		"tags" : "",
		"style" : "",
		"subpatcher_template" : "",
		"assistshowspatchername" : 0,
		"boxes" : [ 			{
				"box" : 				{
					"id" : "obj-32",
					"maxclass" : "message",
					"numinlets" : 2,
					"numoutlets" : 1,
					"outlettype" : [ "" ],
					"patching_rect" : [ 191.0, 569.0, 42.0, 22.0 ],
					"text" : "debug"
				}

			}
, 			{
				"box" : 				{
					"id" : "obj-31",
					"maxclass" : "newobj",
					"numinlets" : 0,
					"numoutlets" : 0,
					"patcher" : 					{
						"fileversion" : 1,
						"appversion" : 						{
							"major" : 8,
							"minor" : 2,
							"revision" : 1,
							"architecture" : "x64",
							"modernui" : 1
						}
,
						"classnamespace" : "box",
						"rect" : [ 102.0, 87.0, 640.0, 480.0 ],
						"bglocked" : 0,
						"openinpresentation" : 0,
						"default_fontsize" : 12.0,
						"default_fontface" : 0,
						"default_fontname" : "Arial",
						"gridonopen" : 1,
						"gridsize" : [ 15.0, 15.0 ],
						"gridsnaponopen" : 1,
						"objectsnaponopen" : 1,
						"statusbarvisible" : 2,
						"toolbarvisible" : 1,
						"lefttoolbarpinned" : 0,
						"toptoolbarpinned" : 0,
						"righttoolbarpinned" : 0,
						"bottomtoolbarpinned" : 0,
						"toolbars_unpinned_last_save" : 0,
						"tallnewobj" : 0,
						"boxanimatetime" : 200,
						"enablehscroll" : 1,
						"enablevscroll" : 1,
						"devicewidth" : 0.0,
						"description" : "",
						"digest" : "",
						"tags" : "",
						"style" : "",
						"subpatcher_template" : "",
						"assistshowspatchername" : 0,
						"boxes" : [  ],
						"lines" : [  ]
					}
,
					"patching_rect" : [ 1370.0, 170.0, 73.0, 22.0 ],
					"saved_object_attributes" : 					{
						"description" : "",
						"digest" : "",
						"globalpatchername" : "",
						"tags" : ""
					}
,
					"text" : "p o.prepend"
				}

			}
, 			{
				"box" : 				{
					"fontface" : 0,
					"id" : "obj-29",
					"maxclass" : "o.compose",
					"numinlets" : 2,
					"numoutlets" : 1,
					"outlettype" : [ "" ],
					"patching_rect" : [ 1347.0, 301.0, 150.0, 23.0 ],
					"saved_bundle_data" : [ 35, 98, 117, 110, 100, 108, 101, 0, 0, 0, 0, 0, 0, 0, 0, 0, 0, 0, 0, 12, 47, 33, 47, 113, 117, 105, 116, 0, 44, 0, 0, 0 ],
					"saved_bundle_length" : 32,
					"text" : "/!/quit"
				}

			}
, 			{
				"box" : 				{
					"fontface" : 0,
					"id" : "obj-28",
					"maxclass" : "o.compose",
					"numinlets" : 2,
					"numoutlets" : 1,
					"outlettype" : [ "" ],
					"patching_rect" : [ 1113.0, 229.0, 150.0, 23.0 ],
					"saved_bundle_data" : [ 35, 98, 117, 110, 100, 108, 101, 0, 0, 0, 0, 0, 0, 0, 0, 0, 0, 0, 0, 12, 47, 33, 47, 97, 100, 100, 0, 0, 44, 0, 0, 0 ],
					"saved_bundle_length" : 32,
					"text" : "/!/add"
				}

			}
, 			{
				"box" : 				{
					"fontface" : 0,
					"id" : "obj-27",
					"maxclass" : "o.compose",
					"numinlets" : 2,
					"numoutlets" : 1,
					"outlettype" : [ "" ],
					"patching_rect" : [ 1177.0, 269.0, 150.0, 23.0 ],
					"saved_bundle_data" : [ 35, 98, 117, 110, 100, 108, 101, 0, 0, 0, 0, 0, 0, 0, 0, 0, 0, 0, 0, 16, 47, 102, 111, 111, 0, 0, 0, 0, 44, 105, 0, 0, 0, 0, 0, 10 ],
					"saved_bundle_length" : 36,
					"text" : "/foo : 10"
				}

			}
, 			{
				"box" : 				{
					"id" : "obj-25",
					"maxclass" : "newobj",
					"numinlets" : 1,
					"numoutlets" : 0,
					"patching_rect" : [ 1177.0, 338.0, 142.0, 22.0 ],
					"text" : "udpsend localhost 10000"
				}

			}
, 			{
				"box" : 				{
					"id" : "obj-24",
					"maxclass" : "newobj",
					"numinlets" : 1,
					"numoutlets" : 2,
					"outlettype" : [ "", "FullPacket" ],
					"patching_rect" : [ 417.0, 569.0, 72.0, 22.0 ],
					"text" : "o.route /text"
				}

			}
, 			{
				"box" : 				{
					"fontface" : 0,
					"id" : "obj-23",
					"maxclass" : "o.display",
					"numinlets" : 1,
					"numoutlets" : 1,
					"outlettype" : [ "" ],
					"patching_rect" : [ 166.0, 664.0, 454.0, 33.0 ]
				}

			}
, 			{
				"box" : 				{
					"fontface" : 0,
					"id" : "obj-22",
					"linecount" : 4,
					"maxclass" : "o.compose",
					"numinlets" : 2,
					"numoutlets" : 1,
					"outlettype" : [ "" ],
					"patching_rect" : [ 12.0, 472.0, 150.0, 62.0 ],
					"saved_bundle_data" : [ 35, 98, 117, 110, 100, 108, 101, 0, 0, 0, 0, 0, 0, 0, 0, 0, 0, 0, 0, 12, 47, 36, 47, 105, 110, 47, 49, 0, 44, 0, 0, 0, 0, 0, 0, 20, 47, 33, 47, 111, 115, 99, 98, 110, 47, 112, 97, 114, 115, 101, 0, 0, 44, 0, 0, 0, 0, 0, 0, 16, 47, 36, 47, 111, 117, 116, 47, 48, 0, 0, 0, 0, 44, 0, 0, 0, 0, 0, 0, 16, 47, 33, 47, 111, 117, 116, 108, 101, 116, 0, 0, 0, 44, 0, 0, 0 ],
					"saved_bundle_length" : 96,
					"text" : "/$/in/1,\n/!/oscbn/parse,\n/$/out/0,\n/!/outlet"
				}

			}
, 			{
				"box" : 				{
					"id" : "obj-15",
					"maxclass" : "newobj",
					"numinlets" : 4,
					"numoutlets" : 2,
					"outlettype" : [ "FullPacket", "FullPacket" ],
					"patching_rect" : [ 166.0, 615.0, 697.0, 22.0 ],
					"text" : "o.se.serve /@/numinlets 3 /@/numoutlets 2 /<</_e /!/load /s//Users/john/Development/0Z3/ose/modules/lang/oscbn/ose_oscbn.so"
				}

			}
, 			{
				"box" : 				{
					"id" : "obj-20",
					"maxclass" : "newobj",
					"numinlets" : 1,
					"numoutlets" : 1,
					"outlettype" : [ "" ],
					"patching_rect" : [ 66.0, 383.0, 71.0, 22.0 ],
					"text" : "o.printbytes"
				}

			}
, 			{
				"box" : 				{
					"fontface" : 0,
					"id" : "obj-19",
					"linecount" : 2,
					"maxclass" : "o.compose",
					"numinlets" : 2,
					"numoutlets" : 1,
					"outlettype" : [ "" ],
					"patching_rect" : [ 585.0, 186.5, 150.0, 36.0 ],
					"saved_bundle_data" : [ 35, 98, 117, 110, 100, 108, 101, 0, 0, 0, 0, 0, 0, 0, 0, 0, 0, 0, 0, 12, 47, 120, 0, 0, 44, 105, 0, 0, 0, 0, 0, 10, 0, 0, 0, 24, 47, 121, 0, 0, 44, 105, 105, 105, 0, 0, 0, 0, 0, 0, 0, 1, 0, 0, 0, 2, 0, 0, 0, 3 ],
					"saved_bundle_length" : 60,
					"text" : "/x : 10,\n/y : [1, 2, 3]"
				}

			}
, 			{
				"box" : 				{
					"fontface" : 0,
					"id" : "obj-18",
					"linecount" : 8,
					"maxclass" : "o.compose",
					"numinlets" : 2,
					"numoutlets" : 1,
					"outlettype" : [ "" ],
					"patching_rect" : [ 585.0, 41.0, 186.0, 113.0 ],
					"saved_bundle_data" : [ 35, 98, 117, 110, 100, 108, 101, 0, 0, 0, 0, 0, 0, 0, 0, 0, 0, 0, 0, 12, 47, 36, 47, 105, 110, 47, 49, 0, 44, 0, 0, 0, 0, 0, 0, 20, 47, 33, 47, 98, 108, 111, 98, 47, 116, 111, 101, 108, 101, 109, 0, 0, 44, 0, 0, 0, 0, 0, 0, 20, 47, 33, 47, 111, 115, 99, 98, 110, 47, 112, 114, 105, 110, 116, 0, 0, 44, 0, 0, 0, 0, 0, 0, 12, 47, 116, 101, 120, 116, 0, 0, 0, 44, 0, 0, 0, 0, 0, 0, 12, 47, 33, 47, 112, 117, 115, 104, 0, 44, 0, 0, 0, 0, 0, 0, 32, 47, 33, 47, 115, 116, 114, 105, 110, 103, 47, 116, 111, 97, 100, 100, 114, 101, 115, 115, 47, 109, 111, 118, 101, 0, 0, 0, 0, 44, 0, 0, 0, 0, 0, 0, 16, 47, 36, 47, 111, 117, 116, 47, 48, 0, 0, 0, 0, 44, 0, 0, 0, 0, 0, 0, 16, 47, 33, 47, 111, 117, 116, 108, 101, 116, 0, 0, 0, 44, 0, 0, 0 ],
					"saved_bundle_length" : 188,
					"text" : "/$/in/1,\n/!/blob/toelem,\n/!/oscbn/print,\n/text,\n/!/push,\n/!/string/toaddress/move,\n/$/out/0,\n/!/outlet"
				}

			}
, 			{
				"box" : 				{
					"fontface" : 0,
					"id" : "obj-17",
					"linecount" : 4,
					"maxclass" : "o.compose",
					"numinlets" : 2,
					"numoutlets" : 1,
					"outlettype" : [ "" ],
					"patching_rect" : [ 388.0, 75.5, 150.0, 62.0 ],
					"saved_bundle_data" : [ 35, 98, 117, 110, 100, 108, 101, 0, 0, 0, 0, 0, 0, 0, 0, 0, 0, 0, 0, 12, 47, 36, 47, 105, 110, 47, 49, 0, 44, 0, 0, 0, 0, 0, 0, 20, 47, 33, 47, 111, 115, 99, 98, 110, 47, 112, 97, 114, 115, 101, 0, 0, 44, 0, 0, 0, 0, 0, 0, 16, 47, 36, 47, 111, 117, 116, 47, 48, 0, 0, 0, 0, 44, 0, 0, 0, 0, 0, 0, 16, 47, 33, 47, 111, 117, 116, 108, 101, 116, 0, 0, 0, 44, 0, 0, 0 ],
					"saved_bundle_length" : 96,
					"text" : "/$/in/1,\n/!/oscbn/parse,\n/$/out/0,\n/!/outlet"
				}

			}
, 			{
				"box" : 				{
					"id" : "obj-16",
					"maxclass" : "message",
					"numinlets" : 2,
					"numoutlets" : 1,
					"outlettype" : [ "" ],
					"patching_rect" : [ 374.0, 255.0, 178.0, 22.0 ],
					"text" : "\"{/a : 10,/b : [1, 2, 3],/c : \\\"xyz\\\"}\""
				}

			}
, 			{
				"box" : 				{
					"id" : "obj-12",
					"maxclass" : "message",
					"numinlets" : 2,
					"numoutlets" : 1,
					"outlettype" : [ "" ],
					"patching_rect" : [ 946.0, 792.0, 58.0, 22.0 ],
					"text" : "\"{/a : 10}\""
				}

			}
, 			{
				"box" : 				{
					"id" : "obj-21",
					"maxclass" : "newobj",
					"numinlets" : 0,
					"numoutlets" : 0,
					"patcher" : 					{
						"fileversion" : 1,
						"appversion" : 						{
							"major" : 8,
							"minor" : 2,
							"revision" : 1,
							"architecture" : "x64",
							"modernui" : 1
						}
,
						"classnamespace" : "box",
						"rect" : [ 59.0, 106.0, 640.0, 480.0 ],
						"bglocked" : 0,
						"openinpresentation" : 0,
						"default_fontsize" : 12.0,
						"default_fontface" : 0,
						"default_fontname" : "Arial",
						"gridonopen" : 1,
						"gridsize" : [ 15.0, 15.0 ],
						"gridsnaponopen" : 1,
						"objectsnaponopen" : 1,
						"statusbarvisible" : 2,
						"toolbarvisible" : 1,
						"lefttoolbarpinned" : 0,
						"toptoolbarpinned" : 0,
						"righttoolbarpinned" : 0,
						"bottomtoolbarpinned" : 0,
						"toolbars_unpinned_last_save" : 0,
						"tallnewobj" : 0,
						"boxanimatetime" : 200,
						"enablehscroll" : 1,
						"enablevscroll" : 1,
						"devicewidth" : 0.0,
						"description" : "",
						"digest" : "",
						"tags" : "",
						"style" : "",
						"subpatcher_template" : "",
						"assistshowspatchername" : 0,
						"boxes" : [ 							{
								"box" : 								{
									"fontface" : 0,
									"id" : "obj-3",
									"maxclass" : "o.display",
									"numinlets" : 1,
									"numoutlets" : 1,
									"outlettype" : [ "" ],
									"patching_rect" : [ 369.0, 281.0, 150.0, 72.0 ]
								}

							}
, 							{
								"box" : 								{
									"id" : "obj-1",
									"maxclass" : "newobj",
									"numinlets" : 1,
									"numoutlets" : 1,
									"outlettype" : [ "" ],
									"patching_rect" : [ 369.0, 223.0, 53.0, 22.0 ],
									"text" : "o.collect"
								}

							}
, 							{
								"box" : 								{
									"id" : "obj-20",
									"maxclass" : "message",
									"numinlets" : 2,
									"numoutlets" : 1,
									"outlettype" : [ "" ],
									"patching_rect" : [ 304.0, 87.0, 58.0, 22.0 ],
									"text" : "/foo a b c"
								}

							}
, 							{
								"box" : 								{
									"id" : "obj-19",
									"maxclass" : "message",
									"numinlets" : 2,
									"numoutlets" : 1,
									"outlettype" : [ "" ],
									"patching_rect" : [ 24.0, 165.0, 42.0, 22.0 ],
									"text" : "debug"
								}

							}
, 							{
								"box" : 								{
									"fontface" : 0,
									"id" : "obj-18",
									"maxclass" : "o.display",
									"numinlets" : 1,
									"numoutlets" : 1,
									"outlettype" : [ "" ],
									"patching_rect" : [ 127.0, 281.0, 150.0, 72.0 ]
								}

							}
, 							{
								"box" : 								{
									"id" : "obj-17",
									"maxclass" : "button",
									"numinlets" : 1,
									"numoutlets" : 1,
									"outlettype" : [ "bang" ],
									"parameter_enable" : 0,
									"patching_rect" : [ 90.0, 165.0, 24.0, 24.0 ]
								}

							}
, 							{
								"box" : 								{
									"fontface" : 0,
									"id" : "obj-15",
									"linecount" : 2,
									"maxclass" : "o.compose",
									"numinlets" : 2,
									"numoutlets" : 1,
									"outlettype" : [ "" ],
									"patching_rect" : [ 127.0, 73.0, 150.0, 36.0 ],
									"saved_bundle_data" : [ 35, 98, 117, 110, 100, 108, 101, 0, 0, 0, 0, 0, 0, 0, 0, 0, 0, 0, 0, 12, 47, 120, 0, 0, 44, 105, 0, 0, 0, 0, 0, 10, 0, 0, 0, 24, 47, 121, 0, 0, 44, 105, 105, 105, 0, 0, 0, 0, 0, 0, 0, 1, 0, 0, 0, 2, 0, 0, 0, 3 ],
									"saved_bundle_length" : 60,
									"text" : "/x : 10,\n/y : [1, 2, 3]"
								}

							}
, 							{
								"box" : 								{
									"id" : "obj-12",
									"maxclass" : "newobj",
									"numinlets" : 1,
									"numoutlets" : 1,
									"outlettype" : [ "FullPacket" ],
									"patching_rect" : [ 127.0, 223.0, 79.0, 22.0 ],
									"text" : "o.se.o.collect"
								}

							}
 ],
						"lines" : [ 							{
								"patchline" : 								{
									"destination" : [ "obj-3", 0 ],
									"source" : [ "obj-1", 0 ]
								}

							}
, 							{
								"patchline" : 								{
									"destination" : [ "obj-18", 0 ],
									"source" : [ "obj-12", 0 ]
								}

							}
, 							{
								"patchline" : 								{
									"destination" : [ "obj-1", 0 ],
									"order" : 0,
									"source" : [ "obj-15", 0 ]
								}

							}
, 							{
								"patchline" : 								{
									"destination" : [ "obj-12", 0 ],
									"order" : 1,
									"source" : [ "obj-15", 0 ]
								}

							}
, 							{
								"patchline" : 								{
									"destination" : [ "obj-1", 0 ],
									"order" : 0,
									"source" : [ "obj-17", 0 ]
								}

							}
, 							{
								"patchline" : 								{
									"destination" : [ "obj-12", 0 ],
									"order" : 1,
									"source" : [ "obj-17", 0 ]
								}

							}
, 							{
								"patchline" : 								{
									"destination" : [ "obj-12", 0 ],
									"source" : [ "obj-19", 0 ]
								}

							}
, 							{
								"patchline" : 								{
									"destination" : [ "obj-1", 0 ],
									"order" : 0,
									"source" : [ "obj-20", 0 ]
								}

							}
, 							{
								"patchline" : 								{
									"destination" : [ "obj-12", 0 ],
									"order" : 1,
									"source" : [ "obj-20", 0 ]
								}

							}
 ]
					}
,
					"patching_rect" : [ 1370.0, 75.5, 63.0, 22.0 ],
					"saved_object_attributes" : 					{
						"description" : "",
						"digest" : "",
						"globalpatchername" : "",
						"tags" : ""
					}
,
					"text" : "p o.collect"
				}

			}
, 			{
				"box" : 				{
					"id" : "obj-14",
					"maxclass" : "message",
					"numinlets" : 2,
					"numoutlets" : 1,
					"outlettype" : [ "" ],
					"patching_rect" : [ 772.0, 750.0, 42.0, 22.0 ],
					"text" : "debug"
				}

			}
, 			{
				"box" : 				{
					"id" : "obj-13",
					"maxclass" : "button",
					"numinlets" : 1,
					"numoutlets" : 1,
					"outlettype" : [ "bang" ],
					"parameter_enable" : 0,
					"patching_rect" : [ 797.0, 700.0, 24.0, 24.0 ]
				}

			}
, 			{
				"box" : 				{
					"id" : "obj-11",
					"linecount" : 2,
					"maxclass" : "newobj",
					"numinlets" : 1,
					"numoutlets" : 0,
					"patching_rect" : [ 772.0, 862.0, 740.0, 35.0 ],
					"text" : "o.se /!/@ bang /!/bundle/all /'/!/myfunc /!/method/typed/add bang /!/@ anything /!/make/bundle /!/method/typed/add anything /<</_e /!/load /s//Users/john/Development/0Z3/ose/modules/lang/oscbn/ose_oscbn.so"
				}

			}
, 			{
				"box" : 				{
					"id" : "obj-7",
					"maxclass" : "newobj",
					"numinlets" : 0,
					"numoutlets" : 0,
					"patcher" : 					{
						"fileversion" : 1,
						"appversion" : 						{
							"major" : 8,
							"minor" : 2,
							"revision" : 1,
							"architecture" : "x64",
							"modernui" : 1
						}
,
						"classnamespace" : "box",
						"rect" : [ 59.0, 106.0, 640.0, 480.0 ],
						"bglocked" : 0,
						"openinpresentation" : 0,
						"default_fontsize" : 12.0,
						"default_fontface" : 0,
						"default_fontname" : "Arial",
						"gridonopen" : 1,
						"gridsize" : [ 15.0, 15.0 ],
						"gridsnaponopen" : 1,
						"objectsnaponopen" : 1,
						"statusbarvisible" : 2,
						"toolbarvisible" : 1,
						"lefttoolbarpinned" : 0,
						"toptoolbarpinned" : 0,
						"righttoolbarpinned" : 0,
						"bottomtoolbarpinned" : 0,
						"toolbars_unpinned_last_save" : 0,
						"tallnewobj" : 0,
						"boxanimatetime" : 200,
						"enablehscroll" : 1,
						"enablevscroll" : 1,
						"devicewidth" : 0.0,
						"description" : "",
						"digest" : "",
						"tags" : "",
						"style" : "",
						"subpatcher_template" : "",
						"assistshowspatchername" : 0,
						"boxes" : [ 							{
								"box" : 								{
									"id" : "obj-17",
									"maxclass" : "button",
									"numinlets" : 1,
									"numoutlets" : 1,
									"outlettype" : [ "bang" ],
									"parameter_enable" : 0,
									"patching_rect" : [ 80.0, 181.0, 24.0, 24.0 ]
								}

							}
, 							{
								"box" : 								{
									"fontface" : 0,
									"id" : "obj-14",
									"linecount" : 2,
									"maxclass" : "o.compose",
									"numinlets" : 2,
									"numoutlets" : 1,
									"outlettype" : [ "" ],
									"patching_rect" : [ 235.0, 100.0, 150.0, 36.0 ],
									"saved_bundle_data" : [ 35, 98, 117, 110, 100, 108, 101, 0, 0, 0, 0, 0, 0, 0, 0, 0, 0, 0, 0, 12, 47, 97, 0, 0, 44, 115, 0, 0, 102, 111, 111, 0, 0, 0, 0, 16, 47, 98, 97, 114, 0, 0, 0, 0, 44, 115, 0, 0, 97, 0, 0, 0 ],
									"saved_bundle_length" : 52,
									"text" : "/a : \"foo\",\n/bar : \"a\""
								}

							}
, 							{
								"box" : 								{
									"fontface" : 0,
									"id" : "obj-13",
									"maxclass" : "o.display",
									"numinlets" : 1,
									"numoutlets" : 1,
									"outlettype" : [ "" ],
									"patching_rect" : [ 63.0, 259.0, 454.0, 46.0 ]
								}

							}
, 							{
								"box" : 								{
									"id" : "obj-12",
									"maxclass" : "newobj",
									"numinlets" : 2,
									"numoutlets" : 1,
									"outlettype" : [ "FullPacket" ],
									"patching_rect" : [ 219.0, 174.0, 61.0, 22.0 ],
									"text" : "o.se.o.var"
								}

							}
, 							{
								"box" : 								{
									"fontface" : 0,
									"id" : "obj-11",
									"linecount" : 2,
									"maxclass" : "o.compose",
									"numinlets" : 2,
									"numoutlets" : 1,
									"outlettype" : [ "" ],
									"patching_rect" : [ 50.0, 100.0, 150.0, 36.0 ],
									"saved_bundle_data" : [ 35, 98, 117, 110, 100, 108, 101, 0, 0, 0, 0, 0, 0, 0, 0, 0, 0, 0, 0, 12, 47, 120, 0, 0, 44, 105, 0, 0, 0, 0, 0, 10, 0, 0, 0, 24, 47, 121, 0, 0, 44, 105, 105, 105, 0, 0, 0, 0, 0, 0, 0, 1, 0, 0, 0, 2, 0, 0, 0, 3 ],
									"saved_bundle_length" : 60,
									"text" : "/x : 10,\n/y : [1, 2, 3]"
								}

							}
 ],
						"lines" : [ 							{
								"patchline" : 								{
									"destination" : [ "obj-12", 0 ],
									"source" : [ "obj-11", 0 ]
								}

							}
, 							{
								"patchline" : 								{
									"destination" : [ "obj-13", 0 ],
									"source" : [ "obj-12", 0 ]
								}

							}
, 							{
								"patchline" : 								{
									"destination" : [ "obj-12", 1 ],
									"source" : [ "obj-14", 0 ]
								}

							}
, 							{
								"patchline" : 								{
									"destination" : [ "obj-12", 0 ],
									"source" : [ "obj-17", 0 ]
								}

							}
 ]
					}
,
					"patching_rect" : [ 1370.0, 46.0, 45.0, 22.0 ],
					"saved_object_attributes" : 					{
						"description" : "",
						"digest" : "",
						"globalpatchername" : "",
						"tags" : ""
					}
,
					"text" : "p o.var"
				}

			}
, 			{
				"box" : 				{
					"id" : "obj-57",
					"maxclass" : "newobj",
					"numinlets" : 0,
					"numoutlets" : 0,
					"patcher" : 					{
						"fileversion" : 1,
						"appversion" : 						{
							"major" : 8,
							"minor" : 2,
							"revision" : 1,
							"architecture" : "x64",
							"modernui" : 1
						}
,
						"classnamespace" : "box",
						"rect" : [ 59.0, 106.0, 1858.0, 916.0 ],
						"bglocked" : 0,
						"openinpresentation" : 0,
						"default_fontsize" : 12.0,
						"default_fontface" : 0,
						"default_fontname" : "Arial",
						"gridonopen" : 1,
						"gridsize" : [ 15.0, 15.0 ],
						"gridsnaponopen" : 1,
						"objectsnaponopen" : 1,
						"statusbarvisible" : 2,
						"toolbarvisible" : 1,
						"lefttoolbarpinned" : 0,
						"toptoolbarpinned" : 0,
						"righttoolbarpinned" : 0,
						"bottomtoolbarpinned" : 0,
						"toolbars_unpinned_last_save" : 0,
						"tallnewobj" : 0,
						"boxanimatetime" : 200,
						"enablehscroll" : 1,
						"enablevscroll" : 1,
						"devicewidth" : 0.0,
						"description" : "",
						"digest" : "",
						"tags" : "",
						"style" : "",
						"subpatcher_template" : "",
						"assistshowspatchername" : 0,
						"boxes" : [ 							{
								"box" : 								{
									"id" : "obj-8",
									"maxclass" : "message",
									"numinlets" : 2,
									"numoutlets" : 1,
									"outlettype" : [ "" ],
									"patching_rect" : [ 1487.0, 141.0, 66.0, 22.0 ],
									"text" : "/foo/bar 33"
								}

							}
, 							{
								"box" : 								{
									"id" : "obj-33",
									"maxclass" : "message",
									"numinlets" : 2,
									"numoutlets" : 1,
									"outlettype" : [ "" ],
									"patching_rect" : [ 991.0, 141.0, 66.0, 22.0 ],
									"text" : "/foo/bar 33"
								}

							}
, 							{
								"box" : 								{
									"fontface" : 0,
									"id" : "obj-1",
									"maxclass" : "o.compose",
									"numinlets" : 2,
									"numoutlets" : 1,
									"outlettype" : [ "" ],
									"patching_rect" : [ 1440.0, 232.0, 160.0, 23.0 ],
									"saved_bundle_data" : [ 35, 98, 117, 110, 100, 108, 101, 0, 0, 0, 0, 0, 0, 0, 0, 0, 0, 0, 0, 16, 47, 98, 97, 114, 0, 0, 0, 0, 44, 105, 0, 0, 0, 0, 3, -25 ],
									"saved_bundle_length" : 36,
									"text" : "/bar : 999"
								}

							}
, 							{
								"box" : 								{
									"fontface" : 0,
									"id" : "obj-2",
									"maxclass" : "o.display",
									"numinlets" : 1,
									"numoutlets" : 1,
									"outlettype" : [ "" ],
									"patching_rect" : [ 1527.0, 342.0, 242.0, 33.0 ]
								}

							}
, 							{
								"box" : 								{
									"fontface" : 0,
									"id" : "obj-3",
									"maxclass" : "o.display",
									"numinlets" : 1,
									"numoutlets" : 1,
									"outlettype" : [ "" ],
									"patching_rect" : [ 1441.0, 435.0, 242.0, 33.0 ]
								}

							}
, 							{
								"box" : 								{
									"fontface" : 0,
									"id" : "obj-4",
									"maxclass" : "o.display",
									"numinlets" : 1,
									"numoutlets" : 1,
									"outlettype" : [ "" ],
									"patching_rect" : [ 1355.0, 528.0, 242.0, 33.0 ]
								}

							}
, 							{
								"box" : 								{
									"fontface" : 0,
									"id" : "obj-5",
									"maxclass" : "o.display",
									"numinlets" : 1,
									"numoutlets" : 1,
									"outlettype" : [ "" ],
									"patching_rect" : [ 1269.0, 621.0, 242.0, 33.0 ]
								}

							}
, 							{
								"box" : 								{
									"fontface" : 0,
									"id" : "obj-6",
									"linecount" : 6,
									"maxclass" : "o.compose",
									"numinlets" : 2,
									"numoutlets" : 1,
									"outlettype" : [ "" ],
									"patching_rect" : [ 1269.0, 168.0, 160.0, 87.0 ],
									"saved_bundle_data" : [ 35, 98, 117, 110, 100, 108, 101, 0, 0, 0, 0, 0, 0, 0, 0, 0, 0, 0, 0, 20, 47, 102, 111, 111, 47, 120, 121, 122, 0, 0, 0, 0, 44, 105, 0, 0, 0, 0, 0, 10, 0, 0, 0, 28, 47, 98, 97, 114, 0, 0, 0, 0, 44, 105, 105, 105, 0, 0, 0, 0, 0, 0, 0, 1, 0, 0, 0, 2, 0, 0, 0, 3, 0, 0, 0, 16, 47, 98, 108, 97, 114, 107, 0, 0, 44, 105, 0, 0, 0, 0, 3, -25, 0, 0, 0, 16, 47, 98, 108, 111, 114, 102, 0, 0, 44, 105, 0, 0, 0, 0, 2, -102, 0, 0, 0, 20, 47, 121, 121, 121, 0, 0, 0, 0, 44, 115, 0, 0, 115, 116, 114, 105, 110, 103, 0, 0, 0, 0, 0, 24, 47, 98, 42, 0, 44, 115, 0, 0, 97, 108, 108, 32, 116, 104, 101, 32, 115, 116, 117, 102, 102, 0, 0, 0 ],
									"saved_bundle_length" : 164,
									"text" : "/foo/xyz : 10,\n/bar : [1, 2, 3],\n/blark : 999,\n/blorf : 666,\n/yyy : \"string\",\n/b* : \"all the stuff\""
								}

							}
, 							{
								"box" : 								{
									"id" : "obj-7",
									"maxclass" : "newobj",
									"numinlets" : 1,
									"numoutlets" : 4,
									"outlettype" : [ "", "", "", "FullPacket" ],
									"patching_rect" : [ 1269.0, 283.0, 123.0, 22.0 ],
									"text" : "o.route /foo /bar /bloo"
								}

							}
, 							{
								"box" : 								{
									"fontface" : 0,
									"id" : "obj-35",
									"maxclass" : "o.display",
									"numinlets" : 1,
									"numoutlets" : 1,
									"outlettype" : [ "" ],
									"patching_rect" : [ 440.0, 333.0, 242.0, 33.0 ]
								}

							}
, 							{
								"box" : 								{
									"fontface" : 0,
									"id" : "obj-36",
									"maxclass" : "o.display",
									"numinlets" : 1,
									"numoutlets" : 1,
									"outlettype" : [ "" ],
									"patching_rect" : [ 354.0, 426.0, 242.0, 33.0 ]
								}

							}
, 							{
								"box" : 								{
									"fontface" : 0,
									"id" : "obj-37",
									"maxclass" : "o.display",
									"numinlets" : 1,
									"numoutlets" : 1,
									"outlettype" : [ "" ],
									"patching_rect" : [ 268.0, 519.0, 242.0, 33.0 ]
								}

							}
, 							{
								"box" : 								{
									"fontface" : 0,
									"id" : "obj-38",
									"maxclass" : "o.display",
									"numinlets" : 1,
									"numoutlets" : 1,
									"outlettype" : [ "" ],
									"patching_rect" : [ 182.0, 612.0, 242.0, 33.0 ]
								}

							}
, 							{
								"box" : 								{
									"fontface" : 0,
									"id" : "obj-32",
									"linecount" : 8,
									"maxclass" : "o.compose",
									"numinlets" : 2,
									"numoutlets" : 1,
									"outlettype" : [ "" ],
									"patching_rect" : [ 323.0, 100.0, 150.0, 113.0 ],
									"saved_bundle_data" : [ 35, 98, 117, 110, 100, 108, 101, 0, 0, 0, 0, 0, 0, 0, 0, 0, 0, 0, 0, 12, 47, 36, 47, 105, 110, 47, 49, 0, 44, 0, 0, 0, 0, 0, 0, 20, 47, 33, 47, 98, 108, 111, 98, 47, 116, 111, 101, 108, 101, 109, 0, 0, 44, 0, 0, 0, 0, 0, 0, 20, 47, 36, 47, 97, 100, 100, 114, 101, 115, 115, 101, 115, 0, 0, 0, 0, 44, 0, 0, 0, 0, 0, 0, 20, 47, 33, 47, 114, 111, 117, 116, 101, 47, 97, 108, 108, 0, 0, 0, 0, 44, 0, 0, 0, 0, 0, 0, 16, 47, 36, 47, 111, 117, 116, 108, 101, 116, 115, 0, 0, 44, 0, 0, 0, 0, 0, 0, 20, 47, 33, 47, 98, 117, 110, 100, 108, 101, 47, 97, 108, 108, 0, 0, 0, 44, 0, 0, 0, 0, 0, 0, 16, 47, 36, 47, 111, 117, 116, 108, 101, 116, 0, 0, 0, 44, 0, 0, 0, 0, 0, 0, 12, 47, 33, 47, 109, 97, 112, 0, 0, 44, 0, 0, 0 ],
									"saved_bundle_length" : 184,
									"text" : "/$/in/1,\n/!/blob/toelem,\n/$/addresses,\n/!/route/all,\n/$/outlets,\n/!/bundle/all,\n/$/outlet,\n/!/map"
								}

							}
, 							{
								"box" : 								{
									"fontface" : 0,
									"id" : "obj-31",
									"linecount" : 6,
									"maxclass" : "o.compose",
									"numinlets" : 2,
									"numoutlets" : 1,
									"outlettype" : [ "" ],
									"patching_rect" : [ 556.0, 141.0, 160.0, 87.0 ],
									"saved_bundle_data" : [ 35, 98, 117, 110, 100, 108, 101, 0, 0, 0, 0, 0, 0, 0, 0, 0, 0, 0, 0, 20, 47, 102, 111, 111, 47, 120, 121, 122, 0, 0, 0, 0, 44, 105, 0, 0, 0, 0, 0, 10, 0, 0, 0, 28, 47, 98, 97, 114, 0, 0, 0, 0, 44, 105, 105, 105, 0, 0, 0, 0, 0, 0, 0, 1, 0, 0, 0, 2, 0, 0, 0, 3, 0, 0, 0, 16, 47, 98, 108, 97, 114, 107, 0, 0, 44, 105, 0, 0, 0, 0, 3, -25, 0, 0, 0, 16, 47, 98, 108, 111, 114, 102, 0, 0, 44, 105, 0, 0, 0, 0, 2, -102, 0, 0, 0, 20, 47, 121, 121, 121, 0, 0, 0, 0, 44, 115, 0, 0, 115, 116, 114, 105, 110, 103, 0, 0, 0, 0, 0, 24, 47, 98, 42, 0, 44, 115, 0, 0, 97, 108, 108, 32, 116, 104, 101, 32, 115, 116, 117, 102, 102, 0, 0, 0 ],
									"saved_bundle_length" : 164,
									"text" : "/foo/xyz : 10,\n/bar : [1, 2, 3],\n/blark : 999,\n/blorf : 666,\n/yyy : \"string\",\n/b* : \"all the stuff\""
								}

							}
, 							{
								"box" : 								{
									"id" : "obj-30",
									"maxclass" : "message",
									"numinlets" : 2,
									"numoutlets" : 1,
									"outlettype" : [ "" ],
									"patching_rect" : [ 94.0, 277.0, 42.0, 22.0 ],
									"text" : "debug"
								}

							}
, 							{
								"box" : 								{
									"fontface" : 0,
									"id" : "obj-29",
									"linecount" : 11,
									"maxclass" : "o.compose",
									"numinlets" : 2,
									"numoutlets" : 1,
									"outlettype" : [ "" ],
									"patching_rect" : [ 65.0, 66.0, 150.0, 151.0 ],
									"saved_bundle_data" : [ 35, 98, 117, 110, 100, 108, 101, 0, 0, 0, 0, 0, 0, 0, 0, 0, 0, 0, 0, 12, 47, 62, 47, 95, 120, 0, 0, 0, 44, 0, 0, 0, 0, 0, 0, 12, 47, 111, 117, 116, 0, 0, 0, 0, 44, 0, 0, 0, 0, 0, 0, 16, 47, 33, 47, 114, 111, 117, 116, 101, 0, 0, 0, 0, 44, 0, 0, 0, 0, 0, 0, 12, 47, 33, 47, 110, 105, 112, 0, 0, 44, 0, 0, 0, 0, 0, 0, 20, 47, 33, 47, 112, 111, 112, 47, 97, 108, 108, 47, 100, 114, 111, 112, 0, 44, 0, 0, 0, 0, 0, 0, 16, 47, 64, 47, 111, 117, 116, 108, 101, 116, 115, 0, 0, 44, 0, 0, 0, 0, 0, 0, 12, 47, 62, 47, 95, 120, 0, 0, 0, 44, 0, 0, 0, 0, 0, 0, 16, 47, 36, 47, 111, 117, 116, 108, 101, 116, 115, 0, 0, 44, 0, 0, 0, 0, 0, 0, 16, 47, 111, 117, 116, 108, 101, 116, 115, 0, 0, 0, 0, 44, 0, 0, 0, 0, 0, 0, 16, 47, 33, 47, 97, 115, 115, 105, 103, 110, 0, 0, 0, 44, 0, 0, 0, 0, 0, 0, 12, 47, 60, 47, 95, 120, 0, 0, 0, 44, 0, 0, 0 ],
									"saved_bundle_length" : 220,
									"text" : "/>/_x,\n/out,\n/!/route,\n/!/nip,\n/!/pop/all/drop,\n/@/outlets,\n/>/_x,\n/$/outlets,\n/outlets,\n/!/assign,\n/</_x"
								}

							}
, 							{
								"box" : 								{
									"id" : "obj-28",
									"maxclass" : "newobj",
									"numinlets" : 2,
									"numoutlets" : 4,
									"outlettype" : [ "FullPacket", "FullPacket", "FullPacket", "FullPacket" ],
									"patching_rect" : [ 182.0, 283.0, 393.0, 22.0 ],
									"text" : "o.se.serve /@/numoutlets 4 /@/numinlets 1 /@/addresses /foo /bar /bloo"
								}

							}
, 							{
								"box" : 								{
									"fontface" : 0,
									"id" : "obj-27",
									"maxclass" : "o.compose",
									"numinlets" : 2,
									"numoutlets" : 1,
									"outlettype" : [ "" ],
									"patching_rect" : [ 934.0, 232.0, 160.0, 23.0 ],
									"saved_bundle_data" : [ 35, 98, 117, 110, 100, 108, 101, 0, 0, 0, 0, 0, 0, 0, 0, 0, 0, 0, 0, 16, 47, 98, 97, 114, 0, 0, 0, 0, 44, 105, 0, 0, 0, 0, 3, -25 ],
									"saved_bundle_length" : 36,
									"text" : "/bar : 999"
								}

							}
, 							{
								"box" : 								{
									"fontface" : 0,
									"id" : "obj-26",
									"maxclass" : "o.display",
									"numinlets" : 1,
									"numoutlets" : 1,
									"outlettype" : [ "" ],
									"patching_rect" : [ 1021.0, 342.0, 242.0, 33.0 ]
								}

							}
, 							{
								"box" : 								{
									"fontface" : 0,
									"id" : "obj-25",
									"maxclass" : "o.display",
									"numinlets" : 1,
									"numoutlets" : 1,
									"outlettype" : [ "" ],
									"patching_rect" : [ 935.0, 435.0, 242.0, 33.0 ]
								}

							}
, 							{
								"box" : 								{
									"fontface" : 0,
									"id" : "obj-24",
									"maxclass" : "o.display",
									"numinlets" : 1,
									"numoutlets" : 1,
									"outlettype" : [ "" ],
									"patching_rect" : [ 849.0, 528.0, 242.0, 33.0 ]
								}

							}
, 							{
								"box" : 								{
									"fontface" : 0,
									"id" : "obj-19",
									"maxclass" : "o.display",
									"numinlets" : 1,
									"numoutlets" : 1,
									"outlettype" : [ "" ],
									"patching_rect" : [ 763.0, 621.0, 242.0, 33.0 ]
								}

							}
, 							{
								"box" : 								{
									"fontface" : 0,
									"id" : "obj-16",
									"linecount" : 6,
									"maxclass" : "o.compose",
									"numinlets" : 2,
									"numoutlets" : 1,
									"outlettype" : [ "" ],
									"patching_rect" : [ 763.0, 168.0, 160.0, 87.0 ],
									"saved_bundle_data" : [ 35, 98, 117, 110, 100, 108, 101, 0, 0, 0, 0, 0, 0, 0, 0, 0, 0, 0, 0, 20, 47, 102, 111, 111, 47, 120, 121, 122, 0, 0, 0, 0, 44, 105, 0, 0, 0, 0, 0, 10, 0, 0, 0, 28, 47, 98, 97, 114, 0, 0, 0, 0, 44, 105, 105, 105, 0, 0, 0, 0, 0, 0, 0, 1, 0, 0, 0, 2, 0, 0, 0, 3, 0, 0, 0, 16, 47, 98, 108, 97, 114, 107, 0, 0, 44, 105, 0, 0, 0, 0, 3, -25, 0, 0, 0, 16, 47, 98, 108, 111, 114, 102, 0, 0, 44, 105, 0, 0, 0, 0, 2, -102, 0, 0, 0, 20, 47, 121, 121, 121, 0, 0, 0, 0, 44, 115, 0, 0, 115, 116, 114, 105, 110, 103, 0, 0, 0, 0, 0, 24, 47, 98, 42, 0, 44, 115, 0, 0, 97, 108, 108, 32, 116, 104, 101, 32, 115, 116, 117, 102, 102, 0, 0, 0 ],
									"saved_bundle_length" : 164,
									"text" : "/foo/xyz : 10,\n/bar : [1, 2, 3],\n/blark : 999,\n/blorf : 666,\n/yyy : \"string\",\n/b* : \"all the stuff\""
								}

							}
, 							{
								"box" : 								{
									"id" : "obj-11",
									"maxclass" : "newobj",
									"numinlets" : 1,
									"numoutlets" : 4,
									"outlettype" : [ "FullPacket", "FullPacket", "FullPacket", "FullPacket" ],
									"patching_rect" : [ 763.0, 283.0, 149.0, 22.0 ],
									"text" : "o.se.o.route /foo /bar /bloo"
								}

							}
 ],
						"lines" : [ 							{
								"patchline" : 								{
									"destination" : [ "obj-7", 0 ],
									"source" : [ "obj-1", 0 ]
								}

							}
, 							{
								"patchline" : 								{
									"destination" : [ "obj-19", 0 ],
									"source" : [ "obj-11", 0 ]
								}

							}
, 							{
								"patchline" : 								{
									"destination" : [ "obj-24", 0 ],
									"source" : [ "obj-11", 1 ]
								}

							}
, 							{
								"patchline" : 								{
									"destination" : [ "obj-25", 0 ],
									"source" : [ "obj-11", 2 ]
								}

							}
, 							{
								"patchline" : 								{
									"destination" : [ "obj-26", 0 ],
									"source" : [ "obj-11", 3 ]
								}

							}
, 							{
								"patchline" : 								{
									"destination" : [ "obj-11", 0 ],
									"source" : [ "obj-16", 0 ]
								}

							}
, 							{
								"patchline" : 								{
									"destination" : [ "obj-11", 0 ],
									"source" : [ "obj-27", 0 ]
								}

							}
, 							{
								"patchline" : 								{
									"destination" : [ "obj-35", 0 ],
									"source" : [ "obj-28", 3 ]
								}

							}
, 							{
								"patchline" : 								{
									"destination" : [ "obj-36", 0 ],
									"source" : [ "obj-28", 2 ]
								}

							}
, 							{
								"patchline" : 								{
									"destination" : [ "obj-37", 0 ],
									"source" : [ "obj-28", 1 ]
								}

							}
, 							{
								"patchline" : 								{
									"destination" : [ "obj-38", 0 ],
									"source" : [ "obj-28", 0 ]
								}

							}
, 							{
								"patchline" : 								{
									"destination" : [ "obj-28", 0 ],
									"source" : [ "obj-29", 0 ]
								}

							}
, 							{
								"patchline" : 								{
									"destination" : [ "obj-28", 0 ],
									"source" : [ "obj-30", 0 ]
								}

							}
, 							{
								"patchline" : 								{
									"destination" : [ "obj-28", 1 ],
									"source" : [ "obj-31", 0 ]
								}

							}
, 							{
								"patchline" : 								{
									"destination" : [ "obj-11", 0 ],
									"source" : [ "obj-33", 0 ]
								}

							}
, 							{
								"patchline" : 								{
									"destination" : [ "obj-7", 0 ],
									"source" : [ "obj-6", 0 ]
								}

							}
, 							{
								"patchline" : 								{
									"destination" : [ "obj-2", 0 ],
									"source" : [ "obj-7", 3 ]
								}

							}
, 							{
								"patchline" : 								{
									"destination" : [ "obj-3", 0 ],
									"source" : [ "obj-7", 2 ]
								}

							}
, 							{
								"patchline" : 								{
									"destination" : [ "obj-4", 0 ],
									"source" : [ "obj-7", 1 ]
								}

							}
, 							{
								"patchline" : 								{
									"destination" : [ "obj-5", 0 ],
									"source" : [ "obj-7", 0 ]
								}

							}
, 							{
								"patchline" : 								{
									"destination" : [ "obj-7", 0 ],
									"source" : [ "obj-8", 0 ]
								}

							}
 ]
					}
,
					"patching_rect" : [ 1370.0, 106.0, 56.0, 22.0 ],
					"saved_object_attributes" : 					{
						"description" : "",
						"digest" : "",
						"globalpatchername" : "",
						"tags" : ""
					}
,
					"text" : "p o.route"
				}

			}
, 			{
				"box" : 				{
					"id" : "obj-56",
					"maxclass" : "newobj",
					"numinlets" : 0,
					"numoutlets" : 0,
					"patcher" : 					{
						"fileversion" : 1,
						"appversion" : 						{
							"major" : 8,
							"minor" : 2,
							"revision" : 1,
							"architecture" : "x64",
							"modernui" : 1
						}
,
						"classnamespace" : "box",
						"rect" : [ 59.0, 106.0, 1482.0, 625.0 ],
						"bglocked" : 0,
						"openinpresentation" : 0,
						"default_fontsize" : 12.0,
						"default_fontface" : 0,
						"default_fontname" : "Arial",
						"gridonopen" : 1,
						"gridsize" : [ 15.0, 15.0 ],
						"gridsnaponopen" : 1,
						"objectsnaponopen" : 1,
						"statusbarvisible" : 2,
						"toolbarvisible" : 1,
						"lefttoolbarpinned" : 0,
						"toptoolbarpinned" : 0,
						"righttoolbarpinned" : 0,
						"bottomtoolbarpinned" : 0,
						"toolbars_unpinned_last_save" : 0,
						"tallnewobj" : 0,
						"boxanimatetime" : 200,
						"enablehscroll" : 1,
						"enablevscroll" : 1,
						"devicewidth" : 0.0,
						"description" : "",
						"digest" : "",
						"tags" : "",
						"style" : "",
						"subpatcher_template" : "",
						"assistshowspatchername" : 0,
						"boxes" : [ 							{
								"box" : 								{
									"fontface" : 0,
									"id" : "obj-1",
									"maxclass" : "o.display",
									"numinlets" : 1,
									"numoutlets" : 1,
									"outlettype" : [ "" ],
									"patching_rect" : [ 1064.0, 398.0, 202.0, 46.0 ]
								}

							}
, 							{
								"box" : 								{
									"id" : "obj-2",
									"maxclass" : "newobj",
									"numinlets" : 2,
									"numoutlets" : 1,
									"outlettype" : [ "FullPacket" ],
									"patching_rect" : [ 1064.0, 333.0, 48.0, 22.0 ],
									"text" : "o.union"
								}

							}
, 							{
								"box" : 								{
									"fontface" : 0,
									"id" : "obj-51",
									"maxclass" : "o.compose",
									"numinlets" : 2,
									"numoutlets" : 1,
									"outlettype" : [ "" ],
									"patching_rect" : [ 888.0, 92.0, 150.0, 23.0 ],
									"saved_bundle_data" : [ 35, 98, 117, 110, 100, 108, 101, 0, 0, 0, 0, 0, 0, 0, 0, 0, 0, 0, 0, 16, 47, 98, 97, 114, 0, 0, 0, 0, 44, 105, 0, 0, 0, 0, 1, 77 ],
									"saved_bundle_length" : 36,
									"text" : "/bar : 333"
								}

							}
, 							{
								"box" : 								{
									"fontface" : 0,
									"id" : "obj-46",
									"maxclass" : "o.compose",
									"numinlets" : 2,
									"numoutlets" : 1,
									"outlettype" : [ "" ],
									"patching_rect" : [ 725.0, 92.0, 150.0, 23.0 ],
									"saved_bundle_data" : [  ],
									"saved_bundle_length" : 0
								}

							}
, 							{
								"box" : 								{
									"fontface" : 0,
									"id" : "obj-45",
									"maxclass" : "o.compose",
									"numinlets" : 2,
									"numoutlets" : 1,
									"outlettype" : [ "" ],
									"patching_rect" : [ 377.0, 295.0, 150.0, 23.0 ],
									"saved_bundle_data" : [  ],
									"saved_bundle_length" : 0
								}

							}
, 							{
								"box" : 								{
									"fontface" : 0,
									"id" : "obj-44",
									"maxclass" : "o.compose",
									"numinlets" : 2,
									"numoutlets" : 1,
									"outlettype" : [ "" ],
									"patching_rect" : [ 1144.0, 225.0, 150.0, 23.0 ],
									"saved_bundle_data" : [  ],
									"saved_bundle_length" : 0
								}

							}
, 							{
								"box" : 								{
									"id" : "obj-42",
									"maxclass" : "message",
									"numinlets" : 2,
									"numoutlets" : 1,
									"outlettype" : [ "" ],
									"patching_rect" : [ 636.0, 314.0, 42.0, 22.0 ],
									"text" : "debug"
								}

							}
, 							{
								"box" : 								{
									"fontface" : 0,
									"id" : "obj-41",
									"maxclass" : "o.display",
									"numinlets" : 1,
									"numoutlets" : 1,
									"outlettype" : [ "" ],
									"patching_rect" : [ 725.0, 398.0, 202.0, 46.0 ]
								}

							}
, 							{
								"box" : 								{
									"fontface" : 0,
									"id" : "obj-39",
									"linecount" : 4,
									"maxclass" : "o.compose",
									"numinlets" : 2,
									"numoutlets" : 1,
									"outlettype" : [ "" ],
									"patching_rect" : [ 520.0, 92.0, 186.0, 62.0 ],
									"saved_bundle_data" : [ 35, 98, 117, 110, 100, 108, 101, 0, 0, 0, 0, 0, 0, 0, 0, 0, 0, 0, 0, 20, 47, 102, 111, 111, 47, 120, 121, 122, 0, 0, 0, 0, 44, 105, 0, 0, 0, 0, 0, 10, 0, 0, 0, 16, 47, 98, 108, 97, 114, 107, 0, 0, 44, 105, 0, 0, 0, 0, 0, 123, 0, 0, 0, 16, 47, 98, 108, 111, 114, 113, 0, 0, 44, 105, 0, 0, 0, 0, 2, -102, 0, 0, 0, 20, 47, 121, 121, 121, 0, 0, 0, 0, 44, 115, 0, 0, 115, 116, 114, 117, 110, 103, 0, 0 ],
									"saved_bundle_length" : 104,
									"text" : "/foo/xyz : 10,\n/blark : 123,\n/blorq : 666,\n/yyy : \"strung\""
								}

							}
, 							{
								"box" : 								{
									"fontface" : 0,
									"id" : "obj-40",
									"linecount" : 5,
									"maxclass" : "o.compose",
									"numinlets" : 2,
									"numoutlets" : 1,
									"outlettype" : [ "" ],
									"patching_rect" : [ 1119.0, 96.0, 160.0, 75.0 ],
									"saved_bundle_data" : [ 35, 98, 117, 110, 100, 108, 101, 0, 0, 0, 0, 0, 0, 0, 0, 0, 0, 0, 0, 20, 47, 102, 111, 111, 47, 120, 121, 122, 0, 0, 0, 0, 44, 105, 0, 0, 0, 0, 0, 10, 0, 0, 0, 28, 47, 98, 97, 114, 0, 0, 0, 0, 44, 105, 105, 105, 0, 0, 0, 0, 0, 0, 0, 1, 0, 0, 0, 2, 0, 0, 0, 3, 0, 0, 0, 16, 47, 98, 108, 97, 114, 107, 0, 0, 44, 105, 0, 0, 0, 0, 3, -25, 0, 0, 0, 16, 47, 98, 108, 111, 114, 102, 0, 0, 44, 105, 0, 0, 0, 0, 2, -102, 0, 0, 0, 20, 47, 121, 121, 121, 0, 0, 0, 0, 44, 115, 0, 0, 115, 116, 114, 105, 110, 103, 0, 0 ],
									"saved_bundle_length" : 136,
									"text" : "/foo/xyz : 10,\n/bar : [1, 2, 3],\n/blark : 999,\n/blorf : 666,\n/yyy : \"string\""
								}

							}
, 							{
								"box" : 								{
									"id" : "obj-34",
									"maxclass" : "newobj",
									"numinlets" : 2,
									"numoutlets" : 1,
									"outlettype" : [ "FullPacket" ],
									"patching_rect" : [ 725.0, 333.0, 74.0, 22.0 ],
									"text" : "o.se.o.union"
								}

							}
, 							{
								"box" : 								{
									"fontface" : 0,
									"id" : "obj-33",
									"maxclass" : "o.display",
									"numinlets" : 1,
									"numoutlets" : 1,
									"outlettype" : [ "" ],
									"patching_rect" : [ 131.0, 375.0, 202.0, 33.0 ]
								}

							}
, 							{
								"box" : 								{
									"fontface" : 0,
									"id" : "obj-23",
									"linecount" : 15,
									"maxclass" : "o.compose",
									"numinlets" : 2,
									"numoutlets" : 1,
									"outlettype" : [ "" ],
									"patching_rect" : [ 49.0, 77.0, 186.0, 203.0 ],
									"saved_bundle_data" : [ 35, 98, 117, 110, 100, 108, 101, 0, 0, 0, 0, 0, 0, 0, 0, 0, 0, 0, 0, 12, 47, 36, 47, 105, 110, 47, 49, 0, 44, 0, 0, 0, 0, 0, 0, 20, 47, 33, 47, 98, 108, 111, 98, 47, 116, 111, 101, 108, 101, 109, 0, 0, 44, 0, 0, 0, 0, 0, 0, 20, 47, 33, 47, 97, 100, 100, 114, 101, 115, 115, 101, 115, 0, 0, 0, 0, 44, 0, 0, 0, 0, 0, 0, 12, 47, 36, 47, 105, 110, 47, 50, 0, 44, 0, 0, 0, 0, 0, 0, 20, 47, 33, 47, 98, 108, 111, 98, 47, 116, 111, 101, 108, 101, 109, 0, 0, 44, 0, 0, 0, 0, 0, 0, 12, 47, 33, 47, 115, 119, 97, 112, 0, 44, 0, 0, 0, 0, 0, 0, 16, 47, 33, 47, 103, 97, 116, 104, 101, 114, 0, 0, 0, 44, 0, 0, 0, 0, 0, 0, 12, 47, 33, 47, 110, 105, 112, 0, 0, 44, 0, 0, 0, 0, 0, 0, 12, 47, 33, 47, 115, 119, 97, 112, 0, 44, 0, 0, 0, 0, 0, 0, 20, 47, 33, 47, 117, 110, 112, 97, 99, 107, 47, 100, 114, 111, 112, 0, 0, 44, 0, 0, 0, 0, 0, 0, 20, 47, 33, 47, 114, 111, 108, 108, 47, 98, 111, 116, 116, 111, 109, 0, 0, 44, 0, 0, 0, 0, 0, 0, 20, 47, 33, 47, 117, 110, 112, 97, 99, 107, 47, 100, 114, 111, 112, 0, 0, 44, 0, 0, 0, 0, 0, 0, 20, 47, 33, 47, 98, 117, 110, 100, 108, 101, 47, 97, 108, 108, 0, 0, 0, 44, 0, 0, 0, 0, 0, 0, 16, 47, 36, 47, 111, 117, 116, 47, 48, 0, 0, 0, 0, 44, 0, 0, 0, 0, 0, 0, 16, 47, 33, 47, 111, 117, 116, 108, 101, 116, 0, 0, 0, 44, 0, 0, 0 ],
									"saved_bundle_length" : 324,
									"text" : "/$/in/1,\n/!/blob/toelem,\n/!/addresses,\n/$/in/2,\n/!/blob/toelem,\n/!/swap,\n/!/gather,\n/!/nip,\n/!/swap,\n/!/unpack/drop,\n/!/roll/bottom,\n/!/unpack/drop,\n/!/bundle/all,\n/$/out/0,\n/!/outlet"
								}

							}
, 							{
								"box" : 								{
									"fontface" : 0,
									"id" : "obj-22",
									"linecount" : 4,
									"maxclass" : "o.compose",
									"numinlets" : 2,
									"numoutlets" : 1,
									"outlettype" : [ "" ],
									"patching_rect" : [ 240.5, 133.0, 186.0, 62.0 ],
									"saved_bundle_data" : [ 35, 98, 117, 110, 100, 108, 101, 0, 0, 0, 0, 0, 0, 0, 0, 0, 0, 0, 0, 20, 47, 102, 111, 111, 47, 120, 121, 122, 0, 0, 0, 0, 44, 105, 0, 0, 0, 0, 0, 10, 0, 0, 0, 16, 47, 98, 108, 97, 114, 107, 0, 0, 44, 105, 0, 0, 0, 0, 0, 123, 0, 0, 0, 16, 47, 98, 108, 111, 114, 113, 0, 0, 44, 105, 0, 0, 0, 0, 2, -102, 0, 0, 0, 20, 47, 121, 121, 121, 0, 0, 0, 0, 44, 115, 0, 0, 115, 116, 114, 117, 110, 103, 0, 0 ],
									"saved_bundle_length" : 104,
									"text" : "/foo/xyz : 10,\n/blark : 123,\n/blorq : 666,\n/yyy : \"strung\""
								}

							}
, 							{
								"box" : 								{
									"fontface" : 0,
									"id" : "obj-21",
									"linecount" : 5,
									"maxclass" : "o.compose",
									"numinlets" : 2,
									"numoutlets" : 1,
									"outlettype" : [ "" ],
									"patching_rect" : [ 350.0, 205.0, 160.0, 75.0 ],
									"saved_bundle_data" : [ 35, 98, 117, 110, 100, 108, 101, 0, 0, 0, 0, 0, 0, 0, 0, 0, 0, 0, 0, 20, 47, 102, 111, 111, 47, 120, 121, 122, 0, 0, 0, 0, 44, 105, 0, 0, 0, 0, 0, 10, 0, 0, 0, 28, 47, 98, 97, 114, 0, 0, 0, 0, 44, 105, 105, 105, 0, 0, 0, 0, 0, 0, 0, 1, 0, 0, 0, 2, 0, 0, 0, 3, 0, 0, 0, 16, 47, 98, 108, 97, 114, 107, 0, 0, 44, 105, 0, 0, 0, 0, 3, -25, 0, 0, 0, 16, 47, 98, 108, 111, 114, 102, 0, 0, 44, 105, 0, 0, 0, 0, 2, -102, 0, 0, 0, 20, 47, 121, 121, 121, 0, 0, 0, 0, 44, 115, 0, 0, 115, 116, 114, 105, 110, 103, 0, 0 ],
									"saved_bundle_length" : 136,
									"text" : "/foo/xyz : 10,\n/bar : [1, 2, 3],\n/blark : 999,\n/blorf : 666,\n/yyy : \"string\""
								}

							}
, 							{
								"box" : 								{
									"id" : "obj-20",
									"maxclass" : "newobj",
									"numinlets" : 3,
									"numoutlets" : 1,
									"outlettype" : [ "FullPacket" ],
									"patching_rect" : [ 131.0, 333.0, 238.0, 22.0 ],
									"text" : "o.se.serve /@/numinlets 2 /@/numoutlets 1"
								}

							}
 ],
						"lines" : [ 							{
								"patchline" : 								{
									"destination" : [ "obj-1", 0 ],
									"source" : [ "obj-2", 0 ]
								}

							}
, 							{
								"patchline" : 								{
									"destination" : [ "obj-33", 0 ],
									"source" : [ "obj-20", 0 ]
								}

							}
, 							{
								"patchline" : 								{
									"destination" : [ "obj-20", 2 ],
									"source" : [ "obj-21", 0 ]
								}

							}
, 							{
								"patchline" : 								{
									"destination" : [ "obj-20", 1 ],
									"source" : [ "obj-22", 0 ]
								}

							}
, 							{
								"patchline" : 								{
									"destination" : [ "obj-20", 0 ],
									"source" : [ "obj-23", 0 ]
								}

							}
, 							{
								"patchline" : 								{
									"destination" : [ "obj-41", 0 ],
									"source" : [ "obj-34", 0 ]
								}

							}
, 							{
								"patchline" : 								{
									"destination" : [ "obj-2", 0 ],
									"order" : 0,
									"source" : [ "obj-39", 0 ]
								}

							}
, 							{
								"patchline" : 								{
									"destination" : [ "obj-34", 0 ],
									"order" : 1,
									"source" : [ "obj-39", 0 ]
								}

							}
, 							{
								"patchline" : 								{
									"destination" : [ "obj-2", 1 ],
									"order" : 0,
									"source" : [ "obj-40", 0 ]
								}

							}
, 							{
								"patchline" : 								{
									"destination" : [ "obj-34", 1 ],
									"order" : 1,
									"source" : [ "obj-40", 0 ]
								}

							}
, 							{
								"patchline" : 								{
									"destination" : [ "obj-34", 0 ],
									"source" : [ "obj-42", 0 ]
								}

							}
, 							{
								"patchline" : 								{
									"destination" : [ "obj-2", 1 ],
									"order" : 0,
									"source" : [ "obj-44", 0 ]
								}

							}
, 							{
								"patchline" : 								{
									"destination" : [ "obj-34", 1 ],
									"order" : 1,
									"source" : [ "obj-44", 0 ]
								}

							}
, 							{
								"patchline" : 								{
									"destination" : [ "obj-20", 2 ],
									"source" : [ "obj-45", 0 ]
								}

							}
, 							{
								"patchline" : 								{
									"destination" : [ "obj-2", 0 ],
									"order" : 0,
									"source" : [ "obj-46", 0 ]
								}

							}
, 							{
								"patchline" : 								{
									"destination" : [ "obj-34", 0 ],
									"order" : 1,
									"source" : [ "obj-46", 0 ]
								}

							}
, 							{
								"patchline" : 								{
									"destination" : [ "obj-2", 0 ],
									"order" : 0,
									"source" : [ "obj-51", 0 ]
								}

							}
, 							{
								"patchline" : 								{
									"destination" : [ "obj-34", 0 ],
									"order" : 1,
									"source" : [ "obj-51", 0 ]
								}

							}
 ]
					}
,
					"patching_rect" : [ 1370.0, 130.0, 58.0, 22.0 ],
					"saved_object_attributes" : 					{
						"description" : "",
						"digest" : "",
						"globalpatchername" : "",
						"tags" : ""
					}
,
					"text" : "p o.union"
				}

			}
, 			{
				"box" : 				{
					"id" : "obj-55",
					"maxclass" : "newobj",
					"numinlets" : 0,
					"numoutlets" : 0,
					"patcher" : 					{
						"fileversion" : 1,
						"appversion" : 						{
							"major" : 8,
							"minor" : 2,
							"revision" : 1,
							"architecture" : "x64",
							"modernui" : 1
						}
,
						"classnamespace" : "box",
						"rect" : [ 59.0, 106.0, 839.0, 584.0 ],
						"bglocked" : 0,
						"openinpresentation" : 0,
						"default_fontsize" : 12.0,
						"default_fontface" : 0,
						"default_fontname" : "Arial",
						"gridonopen" : 1,
						"gridsize" : [ 15.0, 15.0 ],
						"gridsnaponopen" : 1,
						"objectsnaponopen" : 1,
						"statusbarvisible" : 2,
						"toolbarvisible" : 1,
						"lefttoolbarpinned" : 0,
						"toptoolbarpinned" : 0,
						"righttoolbarpinned" : 0,
						"bottomtoolbarpinned" : 0,
						"toolbars_unpinned_last_save" : 0,
						"tallnewobj" : 0,
						"boxanimatetime" : 200,
						"enablehscroll" : 1,
						"enablevscroll" : 1,
						"devicewidth" : 0.0,
						"description" : "",
						"digest" : "",
						"tags" : "",
						"style" : "",
						"subpatcher_template" : "",
						"assistshowspatchername" : 0,
						"boxes" : [ 							{
								"box" : 								{
									"id" : "obj-5",
									"maxclass" : "message",
									"numinlets" : 2,
									"numoutlets" : 1,
									"outlettype" : [ "" ],
									"patching_rect" : [ 550.0, 185.0, 120.0, 22.0 ],
									"text" : "chicken fried chicken"
								}

							}
, 							{
								"box" : 								{
									"fontface" : 0,
									"id" : "obj-15",
									"linecount" : 2,
									"maxclass" : "o.compose",
									"numinlets" : 2,
									"numoutlets" : 1,
									"outlettype" : [ "" ],
									"patching_rect" : [ 442.0, 95.0, 150.0, 36.0 ],
									"saved_bundle_data" : [ 35, 98, 117, 110, 100, 108, 101, 0, 0, 0, 0, 0, 0, 0, 0, 0, 0, 0, 0, 12, 47, 97, 0, 0, 44, 105, 0, 0, 0, 0, 0, 10, 0, 0, 0, 24, 47, 98, 0, 0, 44, 105, 105, 105, 0, 0, 0, 0, 0, 0, 0, 1, 0, 0, 0, 2, 0, 0, 0, 3 ],
									"saved_bundle_length" : 60,
									"text" : "/a : 10,\n/b : [1, 2, 3]"
								}

							}
, 							{
								"box" : 								{
									"format" : 6,
									"id" : "obj-1",
									"maxclass" : "flonum",
									"numinlets" : 1,
									"numoutlets" : 2,
									"outlettype" : [ "", "bang" ],
									"parameter_enable" : 0,
									"patching_rect" : [ 22.0, 235.0, 50.0, 22.0 ]
								}

							}
, 							{
								"box" : 								{
									"fontface" : 0,
									"id" : "obj-3",
									"maxclass" : "o.display",
									"numinlets" : 1,
									"numoutlets" : 1,
									"outlettype" : [ "" ],
									"patching_rect" : [ 478.0, 360.0, 176.0, 97.0 ]
								}

							}
, 							{
								"box" : 								{
									"id" : "obj-2",
									"maxclass" : "newobj",
									"numinlets" : 3,
									"numoutlets" : 1,
									"outlettype" : [ "FullPacket" ],
									"patching_rect" : [ 478.0, 313.0, 151.0, 22.0 ],
									"text" : "o.pack /foo /bar 1 2 3 /bloo"
								}

							}
, 							{
								"box" : 								{
									"fontface" : 0,
									"id" : "obj-18",
									"maxclass" : "o.display",
									"numinlets" : 1,
									"numoutlets" : 1,
									"outlettype" : [ "" ],
									"patching_rect" : [ 121.0, 360.0, 176.0, 161.0 ]
								}

							}
, 							{
								"box" : 								{
									"id" : "obj-17",
									"maxclass" : "message",
									"numinlets" : 2,
									"numoutlets" : 1,
									"outlettype" : [ "" ],
									"patching_rect" : [ 121.0, 63.0, 35.0, 22.0 ],
									"text" : "4 5 6"
								}

							}
, 							{
								"box" : 								{
									"format" : 6,
									"id" : "obj-14",
									"maxclass" : "flonum",
									"numinlets" : 1,
									"numoutlets" : 2,
									"outlettype" : [ "", "bang" ],
									"parameter_enable" : 0,
									"patching_rect" : [ 315.0, 118.0, 50.0, 22.0 ]
								}

							}
, 							{
								"box" : 								{
									"id" : "obj-13",
									"maxclass" : "message",
									"numinlets" : 2,
									"numoutlets" : 1,
									"outlettype" : [ "" ],
									"patching_rect" : [ 56.0, 113.0, 42.0, 22.0 ],
									"text" : "debug"
								}

							}
, 							{
								"box" : 								{
									"format" : 6,
									"id" : "obj-12",
									"maxclass" : "flonum",
									"numinlets" : 1,
									"numoutlets" : 2,
									"outlettype" : [ "", "bang" ],
									"parameter_enable" : 0,
									"patching_rect" : [ 246.0, 102.0, 50.0, 22.0 ]
								}

							}
, 							{
								"box" : 								{
									"id" : "obj-7",
									"maxclass" : "newobj",
									"numinlets" : 3,
									"numoutlets" : 1,
									"outlettype" : [ "FullPacket" ],
									"patching_rect" : [ 121.0, 313.0, 177.0, 22.0 ],
									"text" : "o.se.o.pack /foo /bar 1 2 3 /bloo"
								}

							}
 ],
						"lines" : [ 							{
								"patchline" : 								{
									"destination" : [ "obj-2", 0 ],
									"order" : 0,
									"source" : [ "obj-1", 0 ]
								}

							}
, 							{
								"patchline" : 								{
									"destination" : [ "obj-7", 0 ],
									"order" : 1,
									"source" : [ "obj-1", 0 ]
								}

							}
, 							{
								"patchline" : 								{
									"destination" : [ "obj-2", 1 ],
									"order" : 0,
									"source" : [ "obj-12", 0 ]
								}

							}
, 							{
								"patchline" : 								{
									"destination" : [ "obj-7", 1 ],
									"order" : 1,
									"source" : [ "obj-12", 0 ]
								}

							}
, 							{
								"patchline" : 								{
									"destination" : [ "obj-7", 0 ],
									"source" : [ "obj-13", 0 ]
								}

							}
, 							{
								"patchline" : 								{
									"destination" : [ "obj-2", 2 ],
									"order" : 0,
									"source" : [ "obj-14", 0 ]
								}

							}
, 							{
								"patchline" : 								{
									"destination" : [ "obj-7", 2 ],
									"order" : 1,
									"source" : [ "obj-14", 0 ]
								}

							}
, 							{
								"patchline" : 								{
									"destination" : [ "obj-2", 1 ],
									"order" : 0,
									"source" : [ "obj-15", 0 ]
								}

							}
, 							{
								"patchline" : 								{
									"destination" : [ "obj-7", 1 ],
									"order" : 1,
									"source" : [ "obj-15", 0 ]
								}

							}
, 							{
								"patchline" : 								{
									"destination" : [ "obj-2", 0 ],
									"order" : 0,
									"source" : [ "obj-17", 0 ]
								}

							}
, 							{
								"patchline" : 								{
									"destination" : [ "obj-7", 0 ],
									"order" : 1,
									"source" : [ "obj-17", 0 ]
								}

							}
, 							{
								"patchline" : 								{
									"destination" : [ "obj-3", 0 ],
									"source" : [ "obj-2", 0 ]
								}

							}
, 							{
								"patchline" : 								{
									"destination" : [ "obj-2", 2 ],
									"order" : 0,
									"source" : [ "obj-5", 0 ]
								}

							}
, 							{
								"patchline" : 								{
									"destination" : [ "obj-7", 2 ],
									"order" : 1,
									"source" : [ "obj-5", 0 ]
								}

							}
, 							{
								"patchline" : 								{
									"destination" : [ "obj-18", 0 ],
									"source" : [ "obj-7", 0 ]
								}

							}
 ]
					}
,
					"patching_rect" : [ 1370.0, 19.0, 54.0, 22.0 ],
					"saved_object_attributes" : 					{
						"description" : "",
						"digest" : "",
						"globalpatchername" : "",
						"tags" : ""
					}
,
					"text" : "p o.pack"
				}

			}
, 			{
				"box" : 				{
					"fontface" : 0,
					"id" : "obj-10",
					"linecount" : 6,
					"maxclass" : "o.compose",
					"numinlets" : 2,
					"numoutlets" : 1,
					"outlettype" : [ "" ],
					"patching_rect" : [ 210.0, 128.0, 150.0, 87.0 ],
					"saved_bundle_data" : [ 35, 98, 117, 110, 100, 108, 101, 0, 0, 0, 0, 0, 0, 0, 0, 0, 0, 0, 0, 12, 47, 62, 47, 95, 120, 0, 0, 0, 44, 0, 0, 0, 0, 0, 0, 8, 47, 105, 110, 0, 44, 0, 0, 0, 0, 0, 0, 16, 47, 33, 47, 114, 111, 117, 116, 101, 0, 0, 0, 0, 44, 0, 0, 0, 0, 0, 0, 16, 47, 36, 47, 111, 117, 116, 47, 48, 0, 0, 0, 0, 44, 0, 0, 0, 0, 0, 0, 16, 47, 33, 47, 111, 117, 116, 108, 101, 116, 0, 0, 0, 44, 0, 0, 0, 0, 0, 0, 12, 47, 33, 47, 100, 114, 111, 112, 0, 44, 0, 0, 0 ],
					"saved_bundle_length" : 120,
					"text" : "/>/_x,\n/in,\n/!/route,\n/$/out/0,\n/!/outlet,\n/!/drop"
				}

			}
, 			{
				"box" : 				{
					"id" : "obj-9",
					"maxclass" : "message",
					"numinlets" : 2,
					"numoutlets" : 1,
					"outlettype" : [ "" ],
					"patching_rect" : [ 548.0, 289.0, 37.0, 22.0 ],
					"text" : "llama"
				}

			}
, 			{
				"box" : 				{
					"id" : "obj-8",
					"maxclass" : "message",
					"numinlets" : 2,
					"numoutlets" : 1,
					"outlettype" : [ "" ],
					"patching_rect" : [ 475.0, 289.0, 35.0, 22.0 ],
					"text" : "1 2 3"
				}

			}
, 			{
				"box" : 				{
					"fontface" : 0,
					"id" : "obj-4",
					"maxclass" : "o.display",
					"numinlets" : 1,
					"numoutlets" : 1,
					"outlettype" : [ "" ],
					"patching_rect" : [ 874.0, 386.0, 150.0, 33.0 ]
				}

			}
, 			{
				"box" : 				{
					"fontface" : 0,
					"id" : "obj-2",
					"maxclass" : "o.display",
					"numinlets" : 1,
					"numoutlets" : 1,
					"outlettype" : [ "" ],
					"patching_rect" : [ 166.0, 369.0, 454.0, 33.0 ]
				}

			}
, 			{
				"box" : 				{
					"fontface" : 0,
					"id" : "obj-6",
					"linecount" : 3,
					"maxclass" : "o.compose",
					"numinlets" : 2,
					"numoutlets" : 1,
					"outlettype" : [ "" ],
					"patching_rect" : [ 166.0, 41.0, 150.0, 49.0 ],
					"saved_bundle_data" : [ 35, 98, 117, 110, 100, 108, 101, 0, 0, 0, 0, 0, 0, 0, 0, 0, 0, 0, 0, 12, 47, 36, 47, 105, 110, 47, 49, 0, 44, 0, 0, 0, 0, 0, 0, 16, 47, 36, 47, 111, 117, 116, 47, 49, 0, 0, 0, 0, 44, 0, 0, 0, 0, 0, 0, 16, 47, 33, 47, 111, 117, 116, 108, 101, 116, 0, 0, 0, 44, 0, 0, 0 ],
					"saved_bundle_length" : 72,
					"text" : "/$/in/1,\n/$/out/1,\n/!/outlet"
				}

			}
, 			{
				"box" : 				{
					"id" : "obj-5",
					"maxclass" : "number",
					"numinlets" : 1,
					"numoutlets" : 2,
					"outlettype" : [ "", "bang" ],
					"parameter_enable" : 0,
					"patching_rect" : [ 402.0, 289.0, 50.0, 22.0 ]
				}

			}
, 			{
				"box" : 				{
					"id" : "obj-3",
					"maxclass" : "message",
					"numinlets" : 2,
					"numoutlets" : 1,
					"outlettype" : [ "" ],
					"patching_rect" : [ 78.0, 52.0, 42.0, 22.0 ],
					"text" : "debug"
				}

			}
, 			{
				"box" : 				{
					"id" : "obj-1",
					"maxclass" : "newobj",
					"numinlets" : 4,
					"numoutlets" : 2,
					"outlettype" : [ "FullPacket", "FullPacket" ],
					"patching_rect" : [ 166.0, 337.0, 697.0, 22.0 ],
					"text" : "o.se.serve /@/numinlets 3 /@/numoutlets 2 /<</_e /!/load /s//Users/john/Development/0Z3/ose/modules/lang/oscbn/ose_oscbn.so"
				}

			}
 ],
		"lines" : [ 			{
				"patchline" : 				{
					"destination" : [ "obj-2", 0 ],
					"order" : 0,
					"source" : [ "obj-1", 0 ]
				}

			}
, 			{
				"patchline" : 				{
					"destination" : [ "obj-20", 0 ],
					"order" : 1,
					"source" : [ "obj-1", 0 ]
				}

			}
, 			{
				"patchline" : 				{
					"destination" : [ "obj-4", 0 ],
					"source" : [ "obj-1", 1 ]
				}

			}
, 			{
				"patchline" : 				{
					"destination" : [ "obj-1", 0 ],
					"source" : [ "obj-10", 0 ]
				}

			}
, 			{
				"patchline" : 				{
					"destination" : [ "obj-11", 0 ],
					"source" : [ "obj-12", 0 ]
				}

			}
, 			{
				"patchline" : 				{
					"destination" : [ "obj-11", 0 ],
					"source" : [ "obj-13", 0 ]
				}

			}
, 			{
				"patchline" : 				{
					"destination" : [ "obj-11", 0 ],
					"source" : [ "obj-14", 0 ]
				}

			}
, 			{
				"patchline" : 				{
					"destination" : [ "obj-23", 0 ],
					"source" : [ "obj-15", 0 ]
				}

			}
, 			{
				"patchline" : 				{
					"destination" : [ "obj-1", 1 ],
					"source" : [ "obj-16", 0 ]
				}

			}
, 			{
				"patchline" : 				{
					"destination" : [ "obj-1", 0 ],
					"source" : [ "obj-17", 0 ]
				}

			}
, 			{
				"patchline" : 				{
					"destination" : [ "obj-1", 0 ],
					"source" : [ "obj-18", 0 ]
				}

			}
, 			{
				"patchline" : 				{
					"destination" : [ "obj-1", 1 ],
					"source" : [ "obj-19", 0 ]
				}

			}
, 			{
				"patchline" : 				{
					"destination" : [ "obj-24", 0 ],
					"source" : [ "obj-2", 0 ]
				}

			}
, 			{
				"patchline" : 				{
					"destination" : [ "obj-15", 0 ],
					"source" : [ "obj-22", 0 ]
				}

			}
, 			{
				"patchline" : 				{
					"destination" : [ "obj-15", 1 ],
					"source" : [ "obj-24", 0 ]
				}

			}
, 			{
				"patchline" : 				{
					"destination" : [ "obj-25", 0 ],
					"source" : [ "obj-27", 0 ]
				}

			}
, 			{
				"patchline" : 				{
					"destination" : [ "obj-25", 0 ],
					"source" : [ "obj-28", 0 ]
				}

			}
, 			{
				"patchline" : 				{
					"destination" : [ "obj-25", 0 ],
					"source" : [ "obj-29", 0 ]
				}

			}
, 			{
				"patchline" : 				{
					"destination" : [ "obj-1", 0 ],
					"source" : [ "obj-3", 0 ]
				}

			}
, 			{
				"patchline" : 				{
					"destination" : [ "obj-15", 0 ],
					"source" : [ "obj-32", 0 ]
				}

			}
, 			{
				"patchline" : 				{
					"destination" : [ "obj-1", 1 ],
					"source" : [ "obj-5", 0 ]
				}

			}
, 			{
				"patchline" : 				{
					"destination" : [ "obj-1", 0 ],
					"source" : [ "obj-6", 0 ]
				}

			}
, 			{
				"patchline" : 				{
					"destination" : [ "obj-1", 2 ],
					"source" : [ "obj-8", 0 ]
				}

			}
, 			{
				"patchline" : 				{
					"destination" : [ "obj-1", 3 ],
					"source" : [ "obj-9", 0 ]
				}

			}
 ],
		"dependency_cache" : [ 			{
				"name" : "o.se.mxo",
				"type" : "iLaX"
			}
, 			{
				"name" : "o.compose.mxo",
				"type" : "iLaX"
			}
, 			{
				"name" : "o.display.mxo",
				"type" : "iLaX"
			}
, 			{
				"name" : "o.pack.mxo",
				"type" : "iLaX"
			}
, 			{
				"name" : "o.union.mxo",
				"type" : "iLaX"
			}
, 			{
				"name" : "o.route.mxo",
				"type" : "iLaX"
			}
, 			{
				"name" : "o.collect.mxo",
				"type" : "iLaX"
			}
, 			{
				"name" : "o.printbytes.mxo",
				"type" : "iLaX"
			}
 ],
		"autosave" : 0
	}

}
